<svg width="40" height="40" viewBox="0 0 40 40" fill="none" xmlns="http://www.w3.org/2000/svg">
<path d="M4.802 19.9328L5.58726 19.4093L7.15776 20.3254L6.37251 20.8489L4.802 19.9328Z" fill="#609BA2"/>
<path d="M4.802 19.9328V21.5033L6.37251 22.4194V20.8489L4.802 19.9328Z" fill="#527880"/>
<path d="M6.37231 20.8489L7.15757 20.3254V21.8959L6.37231 22.4194V20.8489Z" fill="#354D5E"/>
<path d="M3.88574 23.5973V28.3088L13.7014 34.3291V29.4867L9.25164 26.7383L8.46639 26.2148L3.88574 23.5973Z" fill="#158548"/>
<path d="M4.6709 25.2986V26.4765L5.84878 27.1309V25.953L4.6709 25.2986Z" fill="#FDFECC"/>
<path d="M3.88574 23.5973L6.37238 20.8489L8.59726 15.0904L18.4129 20.718L16.0572 26.4766L13.7014 29.4867L9.25164 26.7383L8.46639 26.2148L3.88574 23.5973Z" fill="#527880"/>
<path d="M13.7014 34.3291L36.3429 21.3724V15.483L35.4268 14.9595V10.7715L18.4129 20.718L16.0572 26.4766L13.7014 29.4867V34.3291Z" fill="#026E34"/>
<path d="M20.7688 24.7752L22.0776 23.9899V24.7752L20.7688 25.5604V24.7752Z" fill="#C0C297"/>
<path d="M13.7014 32.6277L36.3429 19.8019V21.3724L13.7014 34.3291V32.6277Z" fill="#354D5E"/>
<path d="M8.59717 15.0904L25.8727 5.27472L35.4267 10.7715L18.4128 20.718L8.59717 15.0904Z" fill="#23B365"/>
<path d="M6.37238 20.8489L10.6913 23.3356L11.4765 23.8591L16.0572 26.4766L13.7014 29.4867L9.25164 26.7383L8.46639 26.2148L3.88574 23.5973L6.37238 20.8489Z" fill="#23B365"/>
<path d="M7.81201 20.4563L9.12077 16.6609L16.9733 21.2415L15.4028 24.7752L7.81201 20.4563Z" fill="#64D2E4"/>
<path d="M3.88574 27.0001L6.63413 28.5706V26.4766L10.5604 28.8323V30.7955L13.7014 32.6277V34.3291L3.88574 28.3088V27.0001Z" fill="#527880"/>
<path d="M11.4766 29.225V30.4029L12.6544 31.0572V29.8794L11.4766 29.225Z" fill="#FDFECC"/>
<path d="M17.4968 25.5605L19.0673 21.3725L22.0338 19.6711V22.943L17.4968 25.5605Z" fill="#354D5E"/>
<path d="M22.9937 22.2885V19.0166L26.1347 17.1844V20.5872L22.9937 22.2885Z" fill="#354D5E"/>
<path d="M27.1816 19.9328V16.6609L30.3227 14.8286V18.1005L27.1816 19.9328Z" fill="#354D5E"/>
<path d="M31.3696 17.577V14.3052L34.5106 12.4729V15.614L31.3696 17.577Z" fill="#354D5E"/>
<path d="M7.41943 27.7853V29.3558L9.64432 30.7955V29.0941L7.41943 27.7853Z" fill="#FDFECC"/>
<path d="M16.4497 26.6074L17.235 26.0839L18.8055 27.0001L18.0202 27.5236L16.4497 26.6074Z" fill="#609BA2"/>
<path d="M16.4497 26.6074V28.1779L18.0202 29.0941V27.5236L16.4497 26.6074Z" fill="#527880"/>
<path d="M18.0203 27.5236L18.8055 27.0001V28.5706L18.0203 29.0941V27.5236Z" fill="#354D5E"/>
<path d="M20.0372 29.7471L19.0421 29.1785C18.7637 29.0857 18.2712 29.1803 17.905 29.3917C16.8844 29.9805 16.0571 31.476 16.0571 32.7321C16.0571 33.3774 16.2752 33.7998 16.6256 34.0114L17.6206 34.58C17.9528 34.7807 18.4033 34.7706 18.9 34.4841C19.9206 33.8953 20.7479 32.3998 20.7479 31.1437C20.7479 30.4154 20.47 29.9136 20.0372 29.7471Z" fill="#609BA2"/>
<path d="M20.7481 31.1437C20.7481 32.3998 19.9208 33.8953 18.9001 34.4841C18.4034 34.7706 17.9529 34.7807 17.6207 34.58C17.2707 34.3683 17.0522 33.9207 17.0522 33.2758C17.0522 32.0198 17.8797 30.5242 18.9001 29.9354C19.329 29.6881 19.7238 29.6263 20.0373 29.747C20.4701 29.9136 20.7481 30.4153 20.7481 31.1437Z" fill="#354D5E"/>
<path d="M19.8645 31.6668C19.8645 32.2348 19.4827 32.911 19.0117 33.1773C18.9263 33.2369 18.8263 33.2725 18.7224 33.2801C18.6185 33.2877 18.5144 33.2672 18.4212 33.2206C18.2595 33.1249 18.1589 32.9225 18.1589 32.6309C18.1589 32.063 18.5406 31.3867 19.0117 31.1203C19.0876 31.0686 19.174 31.0341 19.2647 31.0194C19.3554 31.0047 19.4482 31.0101 19.5366 31.0352C19.7362 31.1106 19.8645 31.3374 19.8645 31.6668Z" fill="#2CA8C8"/>
<path d="M34.3026 21.5019L33.3075 20.9333C33.0291 20.8405 32.5365 20.9352 32.1704 21.1465C31.1498 21.7353 30.3225 23.2308 30.3225 24.487C30.3225 25.1322 30.5405 25.5546 30.891 25.7663L31.886 26.3348C32.2182 26.5355 32.6686 26.5254 33.1653 26.239C34.186 25.6501 35.0133 24.1546 35.0133 22.8985C35.0133 22.1702 34.7353 21.6685 34.3026 21.5019Z" fill="#609BA2"/>
<path d="M35.0134 22.8985C35.0134 24.1546 34.1861 25.6501 33.1655 26.2389C32.6688 26.5254 32.2183 26.5355 31.8861 26.3348C31.5361 26.1231 31.3176 25.6756 31.3176 25.0306C31.3176 23.7746 32.1451 22.2791 33.1655 21.6902C33.5944 21.4429 33.9892 21.3811 34.3027 21.5019C34.7355 21.6685 35.0134 22.1702 35.0134 22.8985Z" fill="#354D5E"/>
<path d="M34.1299 23.4216C34.1299 23.9896 33.748 24.6659 33.2771 24.9321C33.1916 24.9918 33.0917 25.0274 32.9878 25.035C32.8838 25.0426 32.7798 25.0221 32.6866 24.9755C32.5249 24.8798 32.4243 24.6774 32.4243 24.3858C32.4243 23.8179 32.806 23.1416 33.2771 22.8752C33.353 22.8235 33.4394 22.789 33.5301 22.7743C33.6208 22.7596 33.7136 22.765 33.802 22.7901C34.0016 22.8655 34.1299 23.0923 34.1299 23.4216Z" fill="#2CA8C8"/>
<path d="M8.46631 26.2148L10.6912 23.3356L11.4764 23.8591L9.25156 26.7383L8.46631 26.2148Z" fill="#158548"/>
</svg>
