<svg width="33" height="28" viewBox="0 0 33 28" fill="none" xmlns="http://www.w3.org/2000/svg">
<path d="M32.4877 10.2667L21.9397 3.79729L19.8301 3.37537L30.6593 9.84479L32.4877 10.2667Z" fill="#23B365"/>
<path d="M1.40649 14.4859L6.18824 11.6731L16.7362 17.7206L11.8138 20.5334L1.40649 14.4859Z" fill="#23B365"/>
<path d="M6.18823 11.6731L16.7362 17.7206L18.7052 11.3918L8.86039 5.48492L6.18823 11.6731Z" fill="#527880"/>
<path d="M30.6596 9.84479L28.128 5.76624L18.7052 11.3918L16.7362 17.7206L11.8138 20.5334L10.6887 23.0649V27.1435L32.4879 14.2046V10.2667L30.6596 9.84479Z" fill="#026E34"/>
<path d="M8.86035 5.48495L18.2832 0L28.128 5.76623L18.7051 11.3918L8.86035 5.48495Z" fill="#23B365"/>
<path d="M11.8137 20.5334L10.6886 23.0649V27.1435L0 20.8147V16.8768L1.4064 14.4859L11.8137 20.5334Z" fill="#23B365"/>
<path d="M0 16.8768L10.6886 23.0649L11.8137 20.5334L1.4064 14.4859L0 16.8768Z" fill="#35C979"/>
<path d="M7.73511 11.2512L9.42278 7.17261L17.4392 11.9544L16.0329 16.0329L7.73511 11.2512Z" fill="#64D2E4"/>
<path d="M29.5345 10.4073L27.8468 7.03198L24.6121 9.00094V13.2201L29.5345 10.4073Z" fill="#354D5E"/>
<path d="M19.549 11.9544L18.2832 16.8767L23.6275 13.7827V9.56348L19.549 11.9544Z" fill="#354D5E"/>
<path d="M0.984375 18.4238V20.3928L2.67205 21.3773L7.73508 24.3307L9.70404 25.4558V23.4869L7.73508 22.3617L2.67205 19.4083L0.984375 18.4238Z" fill="#527880"/>
<path d="M0.984375 18.4238V20.3928L2.67205 21.3773V19.4083L0.984375 18.4238Z" fill="#FCFFCC"/>
<path d="M7.73511 22.3617V24.3307L9.70406 25.4558V23.4868L7.73511 22.3617Z" fill="#FCFFCC"/>
<path d="M21.9397 15.9626L23.9087 14.7672V15.6813L21.9397 16.8767V15.9626Z" fill="#C0C297"/>
<path d="M27.5654 12.7279L29.5344 11.5325V12.4466L27.5654 13.6421V12.7279Z" fill="#C0C297"/>
<path d="M30.8012 14.813L29.676 14.1098C29.4197 13.961 29.1288 13.8822 28.8324 13.8812C28.536 13.8802 28.2446 13.957 27.9873 14.1041C25.8817 15.3074 24.6945 18.6997 26.4094 19.695L27.5345 20.3982C28.498 20.9573 29.3192 20.2951 29.3937 20.2722C29.4078 20.258 31.6439 19.1425 31.6439 16.4549V16.2764C31.6439 15.9801 31.5661 15.6889 31.4182 15.4321C31.2703 15.1752 31.0575 14.9618 30.8012 14.813Z" fill="#609BA2"/>
<path d="M27.5345 20.3982C25.8292 19.4085 26.9849 16.0231 29.1124 14.8073C29.3697 14.6603 29.6612 14.5834 29.9575 14.5844C30.2539 14.5854 30.5448 14.6642 30.8012 14.813C31.0575 14.9618 31.2703 15.1753 31.4182 15.4321C31.5661 15.6889 31.6439 15.9801 31.6439 16.2765V16.4549C31.6439 19.1425 29.4078 20.258 29.3937 20.2722C29.3192 20.2951 28.4981 20.9573 27.5345 20.3982Z" fill="#354D5E"/>
<path d="M29.3936 16.8768C29.4658 16.8335 29.5484 16.8106 29.6326 16.8107C29.7168 16.8107 29.7994 16.8336 29.8716 16.8769C29.9438 16.9202 30.0029 16.9824 30.0426 17.0566C30.0822 17.1309 30.101 17.2146 30.0968 17.2987C30.0925 17.3148 30.1167 18.1305 29.3936 18.5644C29.3231 18.6066 29.2427 18.6294 29.1606 18.6303C29.0784 18.6313 28.9975 18.6105 28.926 18.5701C28.8546 18.5296 28.7951 18.4709 28.7537 18.4C28.7123 18.329 28.6905 18.2484 28.6904 18.1663C28.6864 17.9089 28.749 17.6549 28.8723 17.429C28.9955 17.203 29.1751 17.0128 29.3936 16.8768Z" fill="#2CA8C8"/>
<path d="M18.5656 21.7044L17.4404 21.0012C17.1841 20.8524 16.8932 20.7735 16.5968 20.7725C16.3004 20.7715 16.009 20.8484 15.7517 20.9955C13.6461 22.1987 12.4589 25.591 14.1738 26.5864L15.2989 27.2896C16.2624 27.8487 17.0836 27.1865 17.1581 27.1635C17.1722 27.1493 19.4083 26.0339 19.4083 23.3462V23.1678C19.4083 22.8714 19.3305 22.5803 19.1826 22.3234C19.0347 22.0666 18.8219 21.8531 18.5656 21.7044Z" fill="#609BA2"/>
<path d="M15.2989 27.2895C13.5936 26.2998 14.7493 22.9144 16.8768 21.6986C17.1341 21.5516 17.4256 21.4747 17.7219 21.4757C18.0183 21.4767 18.3092 21.5555 18.5656 21.7043C18.8219 21.8531 19.0347 22.0665 19.1826 22.3234C19.3305 22.5802 19.4083 22.8714 19.4083 23.1678V23.3462C19.4083 26.0338 17.1722 27.1493 17.1581 27.1635C17.0836 27.1864 16.2625 27.8486 15.2989 27.2895Z" fill="#354D5E"/>
<path d="M17.158 23.7681C17.2302 23.7248 17.3128 23.702 17.397 23.702C17.4812 23.7021 17.5638 23.725 17.636 23.7683C17.7082 23.8116 17.7673 23.8737 17.807 23.948C17.8466 24.0223 17.8654 24.1059 17.8612 24.19C17.8569 24.2062 17.8812 25.0219 17.158 25.4558C17.0875 25.498 17.0071 25.5207 16.925 25.5217C16.8428 25.5227 16.7619 25.5019 16.6905 25.4614C16.619 25.421 16.5595 25.3623 16.5181 25.2913C16.4767 25.2204 16.4549 25.1398 16.4548 25.0576C16.4508 24.8003 16.5134 24.5463 16.6367 24.3203C16.7599 24.0944 16.9395 23.9041 17.158 23.7681Z" fill="#2CA8C8"/>
</svg>
